# xmcd
#
# Track frame offsets:
#	150
#	16135
#	53337
#	70371
#	83790
#	99377
#	114107
#	140239
#	157286
#	170942
#	186587
#	202999
#	225817
#	240003
#	260106
#	272365
#	293908
#	307640
#	320848
#
# Disc length: 4470 seconds
#
# Revision: 1
# Processed by: cddbd v1.5PL3 Copyright (c) Steve Scherf et al.
# Submitted via: audiograbber 1.82.02
#
DISCID=02117413
DTITLE=Ace in the Whole - Fashion Don'ts
DYEAR=2003
DGENRE=
TTITLE0=Jeannie 
TTITLE1=Dreams
TTITLE2=Emily
TTITLE3=What I Want To Be
TTITLE4=Iowa City
TTITLE5=I Think I Could Love You
TTITLE6=Love is Where It's At
TTITLE7=Make Yourself Happy
TTITLE8=Sara
TTITLE9=Climbin' Walls
TTITLE10=The Eyes Have It
TTITLE11=Waylaid
TTITLE12=Lately
TTITLE13=Winter Dream
TTITLE14=Until You Get Home
TTITLE15=Grandad's Cowboy Blues
TTITLE16=It Matters To Me
TTITLE17=You've Got To Know
TTITLE18=Smile All Over
EXTD=Two Fish Studios, Mankato, MN
EXTT0=
EXTT1=
EXTT2=
EXTT3=
EXTT4=
EXTT5=
EXTT6=
EXTT7=
EXTT8=
EXTT9=
EXTT10=
EXTT11=
EXTT12=
EXTT13=
EXTT14=
EXTT15=
EXTT16=
EXTT17=
EXTT18=
PLAYORDER=
